<mxfile host="app.diagrams.net" modified="2022-06-26T20:57:08.216Z" agent="5.0 (Windows)" etag="Nz8QSivkgqPbR1-6W0dc" version="16.5.2" type="github">
  <diagram id="C5RBs43oDa-KdzZeNtuy" name="Page-1">
    <mxGraphModel dx="1578" dy="851" grid="1" gridSize="10" guides="1" tooltips="1" connect="1" arrows="1" fold="1" page="1" pageScale="1" pageWidth="827" pageHeight="1169" math="0" shadow="0">
      <root>
        <mxCell id="WIyWlLk6GJQsqaUBKTNV-0" />
        <mxCell id="WIyWlLk6GJQsqaUBKTNV-1" parent="WIyWlLk6GJQsqaUBKTNV-0" />
        <mxCell id="WIyWlLk6GJQsqaUBKTNV-2" value="" style="rounded=0;html=1;jettySize=auto;orthogonalLoop=1;fontSize=11;endArrow=block;endFill=0;endSize=8;strokeWidth=1;shadow=0;labelBackgroundColor=none;edgeStyle=orthogonalEdgeStyle;" parent="WIyWlLk6GJQsqaUBKTNV-1" source="WIyWlLk6GJQsqaUBKTNV-3" target="WIyWlLk6GJQsqaUBKTNV-6" edge="1">
          <mxGeometry relative="1" as="geometry" />
        </mxCell>
        <mxCell id="WIyWlLk6GJQsqaUBKTNV-3" value="&quot;Mission finished&quot; signal recieved from the robot" style="rounded=1;whiteSpace=wrap;html=1;fontSize=12;glass=0;strokeWidth=1;shadow=0;" parent="WIyWlLk6GJQsqaUBKTNV-1" vertex="1">
          <mxGeometry x="155" y="60" width="120" height="60" as="geometry" />
        </mxCell>
        <mxCell id="WIyWlLk6GJQsqaUBKTNV-4" value="Yes" style="rounded=0;html=1;jettySize=auto;orthogonalLoop=1;fontSize=11;endArrow=block;endFill=0;endSize=8;strokeWidth=1;shadow=0;labelBackgroundColor=none;edgeStyle=orthogonalEdgeStyle;entryX=0.5;entryY=0;entryDx=0;entryDy=0;" parent="WIyWlLk6GJQsqaUBKTNV-1" source="WIyWlLk6GJQsqaUBKTNV-6" target="0t-S64wb5ezjpTpyrN7x-7" edge="1">
          <mxGeometry y="20" relative="1" as="geometry">
            <mxPoint as="offset" />
            <mxPoint x="220" y="280" as="targetPoint" />
          </mxGeometry>
        </mxCell>
        <mxCell id="WIyWlLk6GJQsqaUBKTNV-5" value="No" style="edgeStyle=orthogonalEdgeStyle;rounded=0;html=1;jettySize=auto;orthogonalLoop=1;fontSize=11;endArrow=block;endFill=0;endSize=8;strokeWidth=1;shadow=0;labelBackgroundColor=none;entryX=0;entryY=0.5;entryDx=0;entryDy=0;" parent="WIyWlLk6GJQsqaUBKTNV-1" source="WIyWlLk6GJQsqaUBKTNV-6" target="0t-S64wb5ezjpTpyrN7x-1" edge="1">
          <mxGeometry y="10" relative="1" as="geometry">
            <mxPoint as="offset" />
            <mxPoint x="330" y="195" as="targetPoint" />
          </mxGeometry>
        </mxCell>
        <mxCell id="WIyWlLk6GJQsqaUBKTNV-6" value="Is a mission assigned to the robot?" style="rhombus;whiteSpace=wrap;html=1;shadow=0;fontFamily=Helvetica;fontSize=12;align=center;strokeWidth=1;spacing=6;spacingTop=-4;" parent="WIyWlLk6GJQsqaUBKTNV-1" vertex="1">
          <mxGeometry x="150" y="140" width="130" height="110" as="geometry" />
        </mxCell>
        <mxCell id="0t-S64wb5ezjpTpyrN7x-0" value="No" style="edgeStyle=orthogonalEdgeStyle;rounded=0;html=1;jettySize=auto;orthogonalLoop=1;fontSize=11;endArrow=block;endFill=0;endSize=8;strokeWidth=1;shadow=0;labelBackgroundColor=none;entryX=0;entryY=0.5;entryDx=0;entryDy=0;" edge="1" parent="WIyWlLk6GJQsqaUBKTNV-1" source="0t-S64wb5ezjpTpyrN7x-1" target="0t-S64wb5ezjpTpyrN7x-3">
          <mxGeometry y="10" relative="1" as="geometry">
            <mxPoint as="offset" />
            <mxPoint x="501" y="195" as="targetPoint" />
          </mxGeometry>
        </mxCell>
        <mxCell id="0t-S64wb5ezjpTpyrN7x-1" value="Are there any pucks left?" style="rhombus;whiteSpace=wrap;html=1;shadow=0;fontFamily=Helvetica;fontSize=12;align=center;strokeWidth=1;spacing=6;spacingTop=-4;" vertex="1" parent="WIyWlLk6GJQsqaUBKTNV-1">
          <mxGeometry x="300" y="140" width="130" height="110" as="geometry" />
        </mxCell>
        <mxCell id="0t-S64wb5ezjpTpyrN7x-2" value="Yes" style="edgeStyle=orthogonalEdgeStyle;rounded=0;html=1;jettySize=auto;orthogonalLoop=1;fontSize=11;endArrow=block;endFill=0;endSize=8;strokeWidth=1;shadow=0;labelBackgroundColor=none;exitX=0.5;exitY=1;exitDx=0;exitDy=0;entryX=0.5;entryY=0;entryDx=0;entryDy=0;" edge="1" parent="WIyWlLk6GJQsqaUBKTNV-1" source="0t-S64wb5ezjpTpyrN7x-1" target="0t-S64wb5ezjpTpyrN7x-4">
          <mxGeometry x="-0.5" y="15" relative="1" as="geometry">
            <mxPoint as="offset" />
            <mxPoint x="400" y="270" as="sourcePoint" />
            <mxPoint x="395" y="300" as="targetPoint" />
            <Array as="points" />
          </mxGeometry>
        </mxCell>
        <mxCell id="0t-S64wb5ezjpTpyrN7x-3" value="Ignore signal" style="rounded=1;whiteSpace=wrap;html=1;fontSize=12;glass=0;strokeWidth=1;shadow=0;" vertex="1" parent="WIyWlLk6GJQsqaUBKTNV-1">
          <mxGeometry x="490" y="175" width="120" height="40" as="geometry" />
        </mxCell>
        <mxCell id="0t-S64wb5ezjpTpyrN7x-4" value="Find the closest puck and assign it to the robot" style="rounded=1;whiteSpace=wrap;html=1;fontSize=12;glass=0;strokeWidth=1;shadow=0;" vertex="1" parent="WIyWlLk6GJQsqaUBKTNV-1">
          <mxGeometry x="490" y="290" width="120" height="50" as="geometry" />
        </mxCell>
        <mxCell id="0t-S64wb5ezjpTpyrN7x-5" value="Is the position of the robot equal to the position of the assigned puck?" style="rhombus;whiteSpace=wrap;html=1;shadow=0;fontFamily=Helvetica;fontSize=12;align=center;strokeWidth=1;spacing=6;spacingTop=-4;" vertex="1" parent="WIyWlLk6GJQsqaUBKTNV-1">
          <mxGeometry x="350" y="380" width="175" height="170" as="geometry" />
        </mxCell>
        <mxCell id="0t-S64wb5ezjpTpyrN7x-6" value="" style="rounded=0;html=1;jettySize=auto;orthogonalLoop=1;fontSize=11;endArrow=block;endFill=0;endSize=8;strokeWidth=1;shadow=0;labelBackgroundColor=none;edgeStyle=orthogonalEdgeStyle;exitX=0.5;exitY=1;exitDx=0;exitDy=0;entryX=0.5;entryY=0;entryDx=0;entryDy=0;" edge="1" parent="WIyWlLk6GJQsqaUBKTNV-1" source="0t-S64wb5ezjpTpyrN7x-4" target="0t-S64wb5ezjpTpyrN7x-5">
          <mxGeometry relative="1" as="geometry">
            <mxPoint x="400" y="370" as="sourcePoint" />
            <mxPoint x="390" y="455" as="targetPoint" />
            <Array as="points" />
          </mxGeometry>
        </mxCell>
        <mxCell id="0t-S64wb5ezjpTpyrN7x-7" value="What is the status of the robot?" style="rhombus;whiteSpace=wrap;html=1;shadow=0;fontFamily=Helvetica;fontSize=12;align=center;strokeWidth=1;spacing=6;spacingTop=-4;" vertex="1" parent="WIyWlLk6GJQsqaUBKTNV-1">
          <mxGeometry x="150" y="280" width="130" height="110" as="geometry" />
        </mxCell>
        <mxCell id="0t-S64wb5ezjpTpyrN7x-8" value="&lt;div&gt;Puck_collected&lt;/div&gt;" style="edgeStyle=orthogonalEdgeStyle;rounded=0;jettySize=auto;orthogonalLoop=1;fontSize=11;endArrow=block;endFill=0;endSize=8;strokeWidth=1;shadow=0;labelBackgroundColor=none;exitX=0;exitY=0.5;exitDx=0;exitDy=0;html=1;entryX=0.5;entryY=0;entryDx=0;entryDy=0;" edge="1" parent="WIyWlLk6GJQsqaUBKTNV-1" source="0t-S64wb5ezjpTpyrN7x-7" target="0t-S64wb5ezjpTpyrN7x-14">
          <mxGeometry relative="1" as="geometry">
            <mxPoint x="100" y="470" as="sourcePoint" />
            <mxPoint x="100" y="400" as="targetPoint" />
          </mxGeometry>
        </mxCell>
        <mxCell id="0t-S64wb5ezjpTpyrN7x-9" value="&lt;div&gt;No_puck&lt;/div&gt;" style="edgeStyle=orthogonalEdgeStyle;rounded=0;jettySize=auto;orthogonalLoop=1;fontSize=11;endArrow=block;endFill=0;endSize=8;strokeWidth=1;shadow=0;labelBackgroundColor=none;exitX=1;exitY=0.5;exitDx=0;exitDy=0;html=1;entryX=0;entryY=0.5;entryDx=0;entryDy=0;" edge="1" parent="WIyWlLk6GJQsqaUBKTNV-1" source="0t-S64wb5ezjpTpyrN7x-7" target="0t-S64wb5ezjpTpyrN7x-5">
          <mxGeometry x="-0.2474" y="29" relative="1" as="geometry">
            <mxPoint as="offset" />
            <mxPoint x="414" y="382.5" as="sourcePoint" />
            <mxPoint x="350" y="400" as="targetPoint" />
            <Array as="points" />
          </mxGeometry>
        </mxCell>
        <mxCell id="0t-S64wb5ezjpTpyrN7x-10" value="Yes" style="edgeStyle=orthogonalEdgeStyle;rounded=0;html=1;jettySize=auto;orthogonalLoop=1;fontSize=11;endArrow=block;endFill=0;endSize=8;strokeWidth=1;shadow=0;labelBackgroundColor=none;exitX=1;exitY=0.5;exitDx=0;exitDy=0;entryX=0.5;entryY=0;entryDx=0;entryDy=0;" edge="1" parent="WIyWlLk6GJQsqaUBKTNV-1" source="0t-S64wb5ezjpTpyrN7x-5" target="0t-S64wb5ezjpTpyrN7x-12">
          <mxGeometry x="-0.5" y="15" relative="1" as="geometry">
            <mxPoint as="offset" />
            <mxPoint x="600" y="500" as="sourcePoint" />
            <mxPoint x="710" y="410" as="targetPoint" />
            <Array as="points" />
          </mxGeometry>
        </mxCell>
        <mxCell id="0t-S64wb5ezjpTpyrN7x-11" value="Change robot&#39;s status to &#39;puck_collected&#39;" style="rounded=1;whiteSpace=wrap;html=1;fontSize=12;glass=0;strokeWidth=1;shadow=0;" vertex="1" parent="WIyWlLk6GJQsqaUBKTNV-1">
          <mxGeometry x="490" y="670" width="120" height="50" as="geometry" />
        </mxCell>
        <mxCell id="0t-S64wb5ezjpTpyrN7x-12" value="Order the robot to collect the puck" style="rounded=1;whiteSpace=wrap;html=1;fontSize=12;glass=0;strokeWidth=1;shadow=0;" vertex="1" parent="WIyWlLk6GJQsqaUBKTNV-1">
          <mxGeometry x="490" y="590" width="120" height="50" as="geometry" />
        </mxCell>
        <mxCell id="0t-S64wb5ezjpTpyrN7x-13" value="" style="rounded=0;html=1;jettySize=auto;orthogonalLoop=1;fontSize=11;endArrow=block;endFill=0;endSize=8;strokeWidth=1;shadow=0;labelBackgroundColor=none;edgeStyle=orthogonalEdgeStyle;exitX=0.5;exitY=1;exitDx=0;exitDy=0;entryX=0.5;entryY=0;entryDx=0;entryDy=0;" edge="1" parent="WIyWlLk6GJQsqaUBKTNV-1" source="0t-S64wb5ezjpTpyrN7x-12" target="0t-S64wb5ezjpTpyrN7x-11">
          <mxGeometry relative="1" as="geometry">
            <mxPoint x="617.5" y="590" as="sourcePoint" />
            <mxPoint x="470" y="570" as="targetPoint" />
            <Array as="points" />
          </mxGeometry>
        </mxCell>
        <mxCell id="0t-S64wb5ezjpTpyrN7x-14" value="Set destination to the red base" style="rounded=1;whiteSpace=wrap;html=1;fontSize=12;glass=0;strokeWidth=1;shadow=0;" vertex="1" parent="WIyWlLk6GJQsqaUBKTNV-1">
          <mxGeometry x="50" y="420" width="120" height="50" as="geometry" />
        </mxCell>
        <mxCell id="0t-S64wb5ezjpTpyrN7x-15" value="Is the position of the robot equal to the base position?" style="rhombus;whiteSpace=wrap;html=1;shadow=0;fontFamily=Helvetica;fontSize=12;align=center;strokeWidth=1;spacing=6;spacingTop=-4;" vertex="1" parent="WIyWlLk6GJQsqaUBKTNV-1">
          <mxGeometry x="32.5" y="490" width="155" height="150" as="geometry" />
        </mxCell>
        <mxCell id="0t-S64wb5ezjpTpyrN7x-16" value="" style="rounded=0;html=1;jettySize=auto;orthogonalLoop=1;fontSize=11;endArrow=block;endFill=0;endSize=8;strokeWidth=1;shadow=0;labelBackgroundColor=none;edgeStyle=orthogonalEdgeStyle;exitX=0.5;exitY=1;exitDx=0;exitDy=0;entryX=0.5;entryY=0;entryDx=0;entryDy=0;" edge="1" parent="WIyWlLk6GJQsqaUBKTNV-1" source="0t-S64wb5ezjpTpyrN7x-14" target="0t-S64wb5ezjpTpyrN7x-15">
          <mxGeometry relative="1" as="geometry">
            <mxPoint x="275" y="490" as="sourcePoint" />
            <mxPoint x="212.5" y="530" as="targetPoint" />
            <Array as="points" />
          </mxGeometry>
        </mxCell>
        <mxCell id="0t-S64wb5ezjpTpyrN7x-17" value="Yes" style="edgeStyle=orthogonalEdgeStyle;rounded=0;html=1;jettySize=auto;orthogonalLoop=1;fontSize=11;endArrow=block;endFill=0;endSize=8;strokeWidth=1;shadow=0;labelBackgroundColor=none;exitX=0.5;exitY=1;exitDx=0;exitDy=0;entryX=0.5;entryY=0;entryDx=0;entryDy=0;" edge="1" parent="WIyWlLk6GJQsqaUBKTNV-1" source="0t-S64wb5ezjpTpyrN7x-15" target="0t-S64wb5ezjpTpyrN7x-20">
          <mxGeometry x="-0.5" y="15" relative="1" as="geometry">
            <mxPoint as="offset" />
            <mxPoint x="127.5" y="670" as="sourcePoint" />
            <mxPoint x="110" y="700" as="targetPoint" />
            <Array as="points" />
          </mxGeometry>
        </mxCell>
        <mxCell id="0t-S64wb5ezjpTpyrN7x-18" value="No" style="edgeStyle=orthogonalEdgeStyle;rounded=0;html=1;jettySize=auto;orthogonalLoop=1;fontSize=11;endArrow=block;endFill=0;endSize=8;strokeWidth=1;shadow=0;labelBackgroundColor=none;entryX=0.5;entryY=0;entryDx=0;entryDy=0;exitX=1;exitY=0.5;exitDx=0;exitDy=0;" edge="1" parent="WIyWlLk6GJQsqaUBKTNV-1" source="0t-S64wb5ezjpTpyrN7x-15" target="0t-S64wb5ezjpTpyrN7x-22">
          <mxGeometry x="-0.7722" y="15" relative="1" as="geometry">
            <mxPoint x="1" as="offset" />
            <mxPoint x="275" y="515" as="targetPoint" />
            <mxPoint x="235" y="515" as="sourcePoint" />
          </mxGeometry>
        </mxCell>
        <mxCell id="0t-S64wb5ezjpTpyrN7x-19" value="Change robot&#39;s status to &#39;no_puck&#39;" style="rounded=1;whiteSpace=wrap;html=1;fontSize=12;glass=0;strokeWidth=1;shadow=0;" vertex="1" parent="WIyWlLk6GJQsqaUBKTNV-1">
          <mxGeometry x="50" y="765" width="120" height="50" as="geometry" />
        </mxCell>
        <mxCell id="0t-S64wb5ezjpTpyrN7x-20" value="Order the robot to leave the puck" style="rounded=1;whiteSpace=wrap;html=1;fontSize=12;glass=0;strokeWidth=1;shadow=0;" vertex="1" parent="WIyWlLk6GJQsqaUBKTNV-1">
          <mxGeometry x="50" y="670" width="120" height="50" as="geometry" />
        </mxCell>
        <mxCell id="0t-S64wb5ezjpTpyrN7x-21" value="" style="rounded=0;html=1;jettySize=auto;orthogonalLoop=1;fontSize=11;endArrow=block;endFill=0;endSize=8;strokeWidth=1;shadow=0;labelBackgroundColor=none;edgeStyle=orthogonalEdgeStyle;exitX=0.5;exitY=1;exitDx=0;exitDy=0;entryX=0.5;entryY=0;entryDx=0;entryDy=0;" edge="1" parent="WIyWlLk6GJQsqaUBKTNV-1" source="0t-S64wb5ezjpTpyrN7x-20" target="0t-S64wb5ezjpTpyrN7x-19">
          <mxGeometry relative="1" as="geometry">
            <mxPoint x="112.5" y="820" as="sourcePoint" />
            <mxPoint x="-35" y="800" as="targetPoint" />
            <Array as="points" />
          </mxGeometry>
        </mxCell>
        <mxCell id="0t-S64wb5ezjpTpyrN7x-22" value="Compute the wavefront algorithm for the robot" style="rounded=1;whiteSpace=wrap;html=1;fontSize=12;glass=0;strokeWidth=1;shadow=0;" vertex="1" parent="WIyWlLk6GJQsqaUBKTNV-1">
          <mxGeometry x="260" y="590" width="120" height="50" as="geometry" />
        </mxCell>
        <mxCell id="0t-S64wb5ezjpTpyrN7x-23" value="No" style="edgeStyle=orthogonalEdgeStyle;rounded=0;html=1;jettySize=auto;orthogonalLoop=1;fontSize=11;endArrow=block;endFill=0;endSize=8;strokeWidth=1;shadow=0;labelBackgroundColor=none;exitX=0.5;exitY=1;exitDx=0;exitDy=0;entryX=0.5;entryY=0;entryDx=0;entryDy=0;" edge="1" parent="WIyWlLk6GJQsqaUBKTNV-1" source="0t-S64wb5ezjpTpyrN7x-5" target="0t-S64wb5ezjpTpyrN7x-22">
          <mxGeometry x="-0.5696" y="-15" relative="1" as="geometry">
            <mxPoint x="1" as="offset" />
            <mxPoint x="350" y="600" as="targetPoint" />
            <mxPoint x="414" y="640" as="sourcePoint" />
            <Array as="points">
              <mxPoint x="438" y="565" />
              <mxPoint x="320" y="565" />
            </Array>
          </mxGeometry>
        </mxCell>
        <mxCell id="0t-S64wb5ezjpTpyrN7x-25" value="Does the path connecting robot position with destination exist?" style="rhombus;whiteSpace=wrap;html=1;shadow=0;fontFamily=Helvetica;fontSize=12;align=center;strokeWidth=1;spacing=6;spacingTop=-4;" vertex="1" parent="WIyWlLk6GJQsqaUBKTNV-1">
          <mxGeometry x="242.5" y="670" width="155" height="150" as="geometry" />
        </mxCell>
        <mxCell id="0t-S64wb5ezjpTpyrN7x-26" value="" style="rounded=0;html=1;jettySize=auto;orthogonalLoop=1;fontSize=11;endArrow=block;endFill=0;endSize=8;strokeWidth=1;shadow=0;labelBackgroundColor=none;edgeStyle=orthogonalEdgeStyle;exitX=0.5;exitY=1;exitDx=0;exitDy=0;entryX=0.5;entryY=0;entryDx=0;entryDy=0;" edge="1" parent="WIyWlLk6GJQsqaUBKTNV-1" source="0t-S64wb5ezjpTpyrN7x-22" target="0t-S64wb5ezjpTpyrN7x-25">
          <mxGeometry relative="1" as="geometry">
            <mxPoint x="490" y="640" as="sourcePoint" />
            <mxPoint x="397.5" y="680" as="targetPoint" />
            <Array as="points" />
          </mxGeometry>
        </mxCell>
        <mxCell id="0t-S64wb5ezjpTpyrN7x-27" value="Yes" style="edgeStyle=orthogonalEdgeStyle;rounded=0;html=1;jettySize=auto;orthogonalLoop=1;fontSize=11;endArrow=block;endFill=0;endSize=8;strokeWidth=1;shadow=0;labelBackgroundColor=none;exitX=0.5;exitY=1;exitDx=0;exitDy=0;entryX=0.5;entryY=0;entryDx=0;entryDy=0;" edge="1" parent="WIyWlLk6GJQsqaUBKTNV-1" source="0t-S64wb5ezjpTpyrN7x-25" target="0t-S64wb5ezjpTpyrN7x-28">
          <mxGeometry x="-0.5" y="15" relative="1" as="geometry">
            <mxPoint as="offset" />
            <mxPoint x="280" y="860" as="sourcePoint" />
            <mxPoint x="370" y="880" as="targetPoint" />
            <Array as="points" />
          </mxGeometry>
        </mxCell>
        <mxCell id="0t-S64wb5ezjpTpyrN7x-28" value="Send position of the first cell from the path to the robot" style="rounded=1;whiteSpace=wrap;html=1;fontSize=12;glass=0;strokeWidth=1;shadow=0;" vertex="1" parent="WIyWlLk6GJQsqaUBKTNV-1">
          <mxGeometry x="260" y="850" width="120" height="50" as="geometry" />
        </mxCell>
        <mxCell id="0t-S64wb5ezjpTpyrN7x-29" value="No" style="edgeStyle=orthogonalEdgeStyle;rounded=0;html=1;jettySize=auto;orthogonalLoop=1;fontSize=11;endArrow=block;endFill=0;endSize=8;strokeWidth=1;shadow=0;labelBackgroundColor=none;exitX=1;exitY=0.5;exitDx=0;exitDy=0;entryX=0.5;entryY=0;entryDx=0;entryDy=0;" edge="1" parent="WIyWlLk6GJQsqaUBKTNV-1" source="0t-S64wb5ezjpTpyrN7x-25" target="0t-S64wb5ezjpTpyrN7x-30">
          <mxGeometry x="-0.7722" y="15" relative="1" as="geometry">
            <mxPoint x="1" as="offset" />
            <mxPoint x="573" y="810" as="targetPoint" />
            <mxPoint x="440" y="790" as="sourcePoint" />
          </mxGeometry>
        </mxCell>
        <mxCell id="0t-S64wb5ezjpTpyrN7x-30" value="Order the robot to wait" style="rounded=1;whiteSpace=wrap;html=1;fontSize=12;glass=0;strokeWidth=1;shadow=0;" vertex="1" parent="WIyWlLk6GJQsqaUBKTNV-1">
          <mxGeometry x="490" y="770" width="120" height="40" as="geometry" />
        </mxCell>
      </root>
    </mxGraphModel>
  </diagram>
</mxfile>
